<svg width="39" height="24" viewBox="0 0 39 24" fill="none" xmlns="http://www.w3.org/2000/svg">
<path opacity="0.07" d="M35.6956 0H3.69565C1.99565 0 0.695648 1.3 0.695648 3V21C0.695648 22.7 2.09565 24 3.69565 24H35.6956C37.3956 24 38.6956 22.7 38.6956 21V3C38.6956 1.3 37.2956 0 35.6956 0Z" fill="black"/>
<path d="M35.6404 0.944763C36.7404 0.944763 37.6404 1.84476 37.6404 2.94476V20.9448C37.6404 22.0448 36.7404 22.9448 35.6404 22.9448H3.64039C2.54039 22.9448 1.64039 22.0448 1.64039 20.9448V2.94476C1.64039 1.84476 2.54039 0.944763 3.64039 0.944763H35.6404Z" fill="#00609C"/>
<path d="M20.5867 13.2277L19.832 10.8448L19.0929 13.2277H20.5867ZM20.546 10.0583L22.2508 15.0963H21.1792L20.8383 14.0524H18.8329L18.4838 15.0963H17.4119L18.9866 10.4431C19.0645 10.2131 19.2802 10.0583 19.5231 10.0583H20.546Z" fill="white"/>
<path d="M25.4103 13.8181C25.4103 14.1885 25.2153 14.3097 24.7524 14.3097H23.7049V12.9333H24.8415C25.2478 12.9333 25.41 13.0995 25.41 13.44V13.8181H25.4103ZM23.7052 10.8452H24.6876C25.0613 10.8452 25.2238 10.9738 25.2238 11.2538V11.6998C25.2238 11.9949 25.0775 12.1688 24.6794 12.1688H23.7052V10.8452ZM25.6454 12.4716C26.0597 12.3054 26.2464 12.0707 26.2464 11.6547V11.1329C26.2464 10.452 25.8322 10.0585 24.8093 10.0585H22.6823V15.0964H24.9558C25.938 15.0964 26.4334 14.6501 26.4334 13.9393V13.4021C26.4332 12.9105 26.1411 12.5697 25.6454 12.4716Z" fill="white"/>
<path d="M15.5489 10.7675H17.0188V10.4022C17.0188 10.1263 16.7952 9.90289 16.5195 9.90289H15.5489C14.2352 9.91545 13.6709 10.4498 13.6709 11.3618V13.631C13.6709 14.5432 14.2352 15.0774 15.5489 15.0899V15.0935H16.9629V14.7272C16.9629 14.4518 16.7398 14.2289 16.4647 14.2289H15.5489V14.2253C14.9077 14.2076 14.6938 13.9802 14.6938 13.4647V11.5283C14.6938 11.0126 14.9077 10.7854 15.5489 10.7675Z" fill="white"/>
<path d="M32.8841 14.2568V10.8486V9.98376H32.4276C32.1148 9.98376 31.8612 10.2374 31.8612 10.5502V10.8486V15.0965H35.1085V14.2568H32.8841Z" fill="white"/>
<path d="M29.8344 13.2278L29.0797 10.8449L28.3406 13.2278H29.8344ZM29.7939 10.0584L31.4987 15.0963H30.4272L30.0862 14.0524H28.0809L27.7314 15.0963H26.6599L28.1864 10.5851C28.293 10.2703 28.5886 10.0582 28.9209 10.0582H29.7939V10.0584Z" fill="white"/>
<path d="M8.112 8.50262L11.8483 12.1718C12.0568 12.3765 12.0568 12.7126 11.8483 12.9175L8.11328 16.5859L8.11379 14.535L9.86782 12.804C10.0126 12.6611 10.0126 12.4277 9.86807 12.285L8.112 10.5482V8.50262Z" fill="white"/>
<path d="M7.4223 8.50262L3.68626 12.1718C3.47773 12.3765 3.47773 12.7126 3.68626 12.9175L7.42102 16.5859L7.42051 14.535L5.66674 12.804C5.522 12.6611 5.522 12.4277 5.66648 12.285L7.42256 10.5482V8.50262H7.4223Z" fill="white"/>
</svg>
