<svg width="26" height="26" viewBox="0 0 26 26" fill="none" xmlns="http://www.w3.org/2000/svg">
<rect opacity="0.07" width="26" height="26" rx="4" fill="black"/>
<rect x="1" y="1" width="24" height="24" rx="4" fill="#133250"/>
<path fill-rule="evenodd" clip-rule="evenodd" d="M12.9844 10.1472C9.90517 10.1472 7.35216 12.5346 7.17676 15.5748C7.17676 15.6528 7.19625 15.721 7.25471 15.7794C7.30343 15.8379 7.38139 15.8671 7.45934 15.8671H9.5154C9.66156 15.8671 9.7785 15.76 9.79799 15.604C9.9539 13.967 11.3278 12.7295 12.9941 12.7295C14.6604 12.7295 16.0344 13.967 16.1903 15.604C16.2 15.7502 16.3267 15.8671 16.4729 15.8671H18.5192C18.5971 15.8671 18.6751 15.8379 18.7238 15.7794C18.7725 15.721 18.8018 15.6528 18.8018 15.5748C18.6166 12.5248 16.0636 10.1472 12.9844 10.1472Z" fill="white"/>
<path fill-rule="evenodd" clip-rule="evenodd" d="M12.985 13.2947C11.533 13.2947 10.3442 14.464 10.3442 15.9062C10.3442 17.3483 11.533 18.5176 12.985 18.5176C14.4369 18.5176 15.6257 17.3483 15.6257 15.9062C15.6257 14.464 14.4369 13.2947 12.985 13.2947Z" fill="white"/>
<path fill-rule="evenodd" clip-rule="evenodd" d="M12.9843 7C10.6456 7 8.42393 7.88673 6.73816 9.49455C5.06213 11.1024 4.0877 13.2559 4 15.5653C4 15.6432 4.02923 15.7114 4.07795 15.7699C4.13642 15.8284 4.20463 15.8576 4.28259 15.8576H6.31915C6.46532 15.8576 6.59199 15.7407 6.60174 15.5945C6.76739 12.2132 9.56402 9.57251 12.9843 9.57251C16.3948 9.57251 19.2012 12.2132 19.3668 15.5945C19.3766 15.7407 19.4935 15.8576 19.6494 15.8576H21.686C21.7639 15.8576 21.8321 15.8284 21.8906 15.7699C21.9491 15.7114 21.9686 15.6432 21.9686 15.5653C21.8809 13.2559 20.9064 11.1024 19.2304 9.49455C17.5446 7.89648 15.3229 7 12.9843 7Z" fill="white"/>
</svg>
