<svg width="39" height="24" viewBox="0 0 39 24" fill="none" xmlns="http://www.w3.org/2000/svg">
<path opacity="0.07" d="M35.1648 0H3.53089C1.85034 0 0.565216 1.3 0.565216 3V21C0.565216 22.7 1.9492 24 3.53089 24H35.1648C36.8453 24 38.1304 22.7 38.1304 21V3C38.1304 1.3 36.7464 0 35.1648 0Z" fill="black"/>
<path d="M35.1648 1.00018C36.2522 1.00018 37.1419 1.90018 37.1419 3.00018V21.0002C37.1419 22.1002 36.2522 23.0002 35.1648 23.0002H3.53091C2.4435 23.0002 1.55379 22.1002 1.55379 21.0002V3.00018C1.55379 1.90018 2.4435 1.00018 3.53091 1.00018H35.1648Z" fill="white"/>
<path d="M15.7884 18.968C19.5855 18.968 22.6637 15.8898 22.6637 12.0927C22.6637 8.29559 19.5855 5.21741 15.7884 5.21741C11.9912 5.21741 8.91304 8.29559 8.91304 12.0927C8.91304 15.8898 11.9912 18.968 15.7884 18.968Z" fill="#EB001B"/>
<path d="M23.6458 18.9682C27.443 18.9682 30.5211 15.89 30.5211 12.0928C30.5211 8.29571 27.443 5.21753 23.6458 5.21753C19.8487 5.21753 16.7705 8.29571 16.7705 12.0928C16.7705 15.89 19.8487 18.9682 23.6458 18.9682Z" fill="#F79E1B"/>
<path d="M22.6636 12.0928C22.6636 9.73554 21.485 7.67295 19.7171 6.49432C17.9491 7.77117 16.7705 9.83376 16.7705 12.0928C16.7705 14.3518 17.9491 16.5126 19.7171 17.6913C21.485 16.5126 22.6636 14.45 22.6636 12.0928Z" fill="#FF5F00"/>
</svg>
