<svg width="41" height="26" viewBox="0 0 41 26" fill="none" xmlns="http://www.w3.org/2000/svg">
<path opacity="0.07" d="M37.0474 0H3.17549C1.37604 0 0 1.37604 0 3.17549V22.2284C0 24.0279 1.48189 25.4039 3.17549 25.4039H37.0474C38.8468 25.4039 40.2228 24.0279 40.2228 22.2284V3.17549C40.2228 1.37604 38.7409 0 37.0474 0Z" fill="black"/>
<path d="M37.047 1.05859C38.2113 1.05859 39.164 2.01124 39.164 3.17559V22.2285C39.164 23.3929 38.2113 24.3455 37.047 24.3455H3.1751C2.01075 24.3455 1.05811 23.3929 1.05811 22.2285V3.17559C1.05811 2.01124 2.01075 1.05859 3.1751 1.05859H37.047Z" fill="white"/>
<path d="M19.3473 7.78629H17.5155C17.396 7.78629 17.3004 7.87108 17.3004 7.97707L17.3429 14.0492C17.3429 14.0869 17.2872 14.101 17.2633 14.0704L12.8111 7.93468C12.7447 7.84282 12.6279 7.78629 12.5058 7.78629H10.4934C10.3739 7.78629 10.2783 7.87108 10.2783 7.97707V17.4291C10.2783 17.5351 10.3739 17.6199 10.4934 17.6199H12.3252C12.4447 17.6199 12.5403 17.5351 12.5403 17.4291V11.4159C12.5403 11.3782 12.596 11.3641 12.6199 11.3947L17.0323 17.4715C17.0987 17.5634 17.2155 17.6199 17.3376 17.6199H19.35C19.4695 17.6199 19.565 17.5351 19.565 17.4291V7.97472C19.565 7.86873 19.4695 7.78394 19.35 7.78394L19.3473 7.78629Z" fill="#F65000"/>
<path d="M23.1019 7.95361C23.0302 7.85233 22.8948 7.78638 22.7594 7.78638H20.6673C20.4974 7.78638 20.3966 7.95361 20.4895 8.07844L23.8319 12.662C23.8505 12.6879 23.8505 12.7208 23.8319 12.7444L20.4895 17.3279C20.3966 17.4527 20.5001 17.62 20.6673 17.62H22.77C22.9027 17.62 23.0275 17.5611 23.0992 17.4598L26.3647 12.9634C26.4789 12.8056 26.4789 12.6031 26.3647 12.4453L23.1019 7.95361Z" fill="#F65000"/>
<path d="M27.0303 13.3639C26.9958 13.3168 26.9188 13.3168 26.8843 13.3639L25.7931 14.8667C25.679 15.0245 25.679 15.227 25.7931 15.3872L27.2746 17.4269C27.3622 17.5471 27.5108 17.6201 27.6728 17.6201H29.7303C29.9002 17.6201 30.0011 17.4552 29.9108 17.328L27.033 13.3663L27.0303 13.3639Z" fill="#50007F"/>
<path d="M27.2746 7.97716L25.7931 10.0169C25.679 10.1747 25.679 10.3773 25.7931 10.5374L26.8843 12.0425C26.9188 12.0896 26.9958 12.0896 27.0277 12.0425L29.9108 8.07373C30.0011 7.95125 29.9002 7.78638 29.7356 7.78638H27.6728C27.5108 7.78638 27.3622 7.85939 27.2746 7.97952V7.97716Z" fill="#50007F"/>
</svg>
