<svg width="38" height="24" viewBox="0 0 38 24" fill="none" xmlns="http://www.w3.org/2000/svg">
<path opacity="0.07" d="M34.5995 0H2.96567C1.28513 0 0 1.3 0 3V21C0 22.7 1.38398 24 2.96567 24H34.5995C36.2801 24 37.5652 22.7 37.5652 21V3C37.5652 1.3 36.1812 0 34.5995 0Z" fill="black"/>
<path d="M34.5995 1.00018C35.6869 1.00018 36.5766 1.90018 36.5766 3.00018V21.0002C36.5766 22.1002 35.6869 23.0002 34.5995 23.0002H2.96563C1.87822 23.0002 0.988518 22.1002 0.988518 21.0002V3.00018C0.988518 1.90018 1.87822 1.00018 2.96563 1.00018H34.5995Z" fill="white"/>
<path d="M28.4496 10.1338H28.1549C27.7621 11.1159 27.4674 11.607 27.1727 13.0803H29.0389C28.7442 11.607 28.7442 10.9195 28.4496 10.1338ZM31.2979 15.9287H29.6282C29.53 15.9287 29.53 15.9287 29.4318 15.8304L29.2353 14.9465L29.1371 14.75H26.7799C26.6816 14.75 26.5834 14.75 26.5834 14.9465L26.2888 15.8304C26.2888 15.9287 26.1906 15.9287 26.1906 15.9287H24.128L24.3244 15.4376L27.1727 8.7587C27.1727 8.2676 27.4674 8.07117 27.9585 8.07117H29.4318C29.53 8.07117 29.6282 8.07117 29.6282 8.2676L31.0033 14.6518C31.1015 15.0447 31.1997 15.3394 31.1997 15.7322C31.2979 15.8304 31.2979 15.8304 31.2979 15.9287ZM18.1366 15.634L18.5295 13.8661C18.6277 13.8661 18.7259 13.9643 18.7259 13.9643C19.4135 14.2589 20.101 14.4554 20.7885 14.3572C20.985 14.3572 21.2796 14.2589 21.4761 14.1607C21.9671 13.9643 21.9671 13.4732 21.5743 13.0803C21.3778 12.8839 21.0832 12.7857 20.7885 12.5892C20.3956 12.3928 20.0028 12.1964 19.7081 11.9017C18.5295 10.9195 18.9224 9.54445 19.6099 8.85692C20.1992 8.46404 20.4939 8.07117 21.2796 8.07117C22.4582 8.07117 23.7351 8.07117 24.3244 8.2676H24.4226C24.3244 8.85692 24.2262 9.34801 24.0297 9.93732C23.5386 9.74089 23.0476 9.54445 22.5565 9.54445C22.2618 9.54445 21.9671 9.54445 21.6725 9.64267C21.4761 9.64267 21.3778 9.74089 21.2796 9.8391C21.0832 10.0355 21.0832 10.3302 21.2796 10.5266L21.7707 10.9195C22.1636 11.1159 22.5565 11.3124 22.8511 11.5088C23.3422 11.8035 23.8333 12.2946 23.9315 12.8839C24.128 13.7679 23.8333 14.5536 23.0476 15.1429C22.5565 15.5358 22.36 15.7322 21.6725 15.7322C20.2974 15.7322 19.217 15.8304 18.3331 15.5358C18.2348 15.7322 18.2348 15.7322 18.1366 15.634ZM14.699 15.9287C14.7972 15.2411 14.7972 15.2411 14.8954 14.9465C15.3865 12.7857 15.8776 10.5266 16.2705 8.36582C16.3687 8.16939 16.3687 8.07117 16.5651 8.07117H18.3331C18.1366 9.24979 17.9402 10.1338 17.6455 11.2142C17.3509 12.6874 17.0562 14.1607 16.6633 15.634C16.6633 15.8304 16.5651 15.8304 16.3687 15.8304M5.56462 8.2676C5.56462 8.16939 5.76106 8.07117 5.85928 8.07117H9.19871C9.68981 8.07117 10.0827 8.36582 10.1809 8.85692L11.0649 13.1785C11.0649 13.2768 11.0649 13.2768 11.1631 13.375C11.1631 13.2768 11.2613 13.2768 11.2613 13.2768L13.3239 8.2676C13.2257 8.16939 13.3239 8.07117 13.4221 8.07117H15.4847C15.4847 8.16939 15.4847 8.16939 15.3865 8.2676L12.3417 15.4376C12.2435 15.634 12.2435 15.7322 12.1453 15.8304C12.0471 15.9287 11.8506 15.8304 11.6542 15.8304H10.1809C10.0827 15.8304 9.98446 15.8304 9.98446 15.634L8.41296 9.54445C8.21653 9.34801 7.92187 9.05335 7.529 8.95514C6.93968 8.66048 5.85928 8.46404 5.66284 8.46404L5.56462 8.2676Z" fill="#142688"/>
</svg>
